<?xml version="1.0" encoding="UTF-8"?>
<svg width="48px" height="48px" viewBox="0 0 48 48" version="1.1" xmlns="http://www.w3.org/2000/svg" xmlns:xlink="http://www.w3.org/1999/xlink">
    <!-- Generator: Sketch 50.2 (55047) - http://www.bohemiancoding.com/sketch -->
    <title>gw2_wvw_map-vector--keep_red</title>
    <desc>Created with Sketch.</desc>
    <defs>
        <radialGradient cx="50%" cy="53.5812623%" fx="50%" fy="53.5812623%" r="48.784095%" gradientTransform="translate(0.500000,0.535813),rotate(-0.000001),scale(1.000000,0.941915),translate(-0.500000,-0.535813)" id="radialGradient-1">
            <stop stop-color="#BA7471" offset="0%"></stop>
            <stop stop-color="#B62720" offset="100%"></stop>
        </radialGradient>
    </defs>
    <g id="Page-1" stroke="none" stroke-width="1" fill="none" fill-rule="evenodd">
        <g id="Group-13" transform="translate(2.000000, 2.000000)">
            <circle id="Oval-2" fill="#000000" cx="22" cy="22" r="22"></circle>
            <circle id="Oval-2" fill="url(#radialGradient-1)" cx="22" cy="22" r="20"></circle>
            <polygon id="Combined-Shape" fill="#000000" points="20.672731 13.5897708 23.7075117 13.5897708 23.7075117 10.4 26.3967563 10.4 26.3967563 13.5897708 29.1857246 13.5897708 29.1857246 10.4 31.9802427 10.4 31.9802427 17.8331442 29.9680786 19.1590358 29.9680786 31.081654 31.1581726 31.9599163 31.1581726 33.2663834 25.5857858 33.2663834 25.5857858 27.7359674 22.1901213 24.7876105 18.7944568 27.7359674 18.7944568 33.2663834 13.2220701 33.2663834 13.2220701 31.9599163 14.412164 31.081654 14.412164 19.1590358 12.4 17.8331442 12.4 10.4 15.1945181 10.4 15.1945181 13.5897708 17.9834864 13.5897708 17.9834864 10.4 20.672731 10.4"></polygon>
        </g>
    </g>
</svg>