<?xml version="1.0" encoding="UTF-8"?>
<svg width="48px" height="48px" viewBox="0 0 48 48" version="1.1" xmlns="http://www.w3.org/2000/svg" xmlns:xlink="http://www.w3.org/1999/xlink">
    <!-- Generator: Sketch 50.2 (55047) - http://www.bohemiancoding.com/sketch -->
    <title>gw2_wvw_map-vector--castle_red</title>
    <desc>Created with Sketch.</desc>
    <defs>
        <radialGradient cx="50%" cy="53.5812623%" fx="50%" fy="53.5812623%" r="48.784095%" gradientTransform="translate(0.500000,0.535813),rotate(-0.000001),scale(1.000000,0.941915),translate(-0.500000,-0.535813)" id="radialGradient-1">
            <stop stop-color="#BA7471" offset="0%"></stop>
            <stop stop-color="#B62720" offset="100%"></stop>
        </radialGradient>
    </defs>
    <g id="Page-1" stroke="none" stroke-width="1" fill="none" fill-rule="evenodd">
        <g id="Group-20" transform="translate(2.000000, 2.000000)">
            <circle id="Oval-2" fill="#000000" cx="22" cy="22" r="22"></circle>
            <circle id="Oval-2" fill="url(#radialGradient-1)" cx="22" cy="22" r="20"></circle>
            <path d="M22.1529775,24.799187 L18.7025391,27.6173828 L18.7025391,33.2955078 L13.1365234,33.2955078 L13.1365234,31.9242188 L14.4703125,31.0855469 L14.4703125,21.2171875 L22.1460937,21.2171875 L29.8361328,21.2170898 L29.8361328,31.0868218 L31.1699219,31.9256104 L31.1699219,33.2970901 L25.6039063,33.2970901 L25.6039063,27.6181754 L22.1529775,24.799187 Z M22,10.5381488 L22,10.4 L22.0657227,10.4690744 L22.1314453,10.4 L22.1314453,10.5381488 L28.2310547,16.9488281 L31.3314453,14.6361328 L29.6390625,19.0884766 L14.4923828,19.0884766 L12.8,14.6361328 L15.9003906,16.9488281 L22,10.5381488 Z" id="Combined-Shape" fill="#000000"></path>
        </g>
    </g>
</svg>