<?xml version="1.0" encoding="UTF-8"?>
<svg width="48px" height="48px" viewBox="0 0 48 48" version="1.1" xmlns="http://www.w3.org/2000/svg" xmlns:xlink="http://www.w3.org/1999/xlink">
    <!-- Generator: Sketch 50.2 (55047) - http://www.bohemiancoding.com/sketch -->
    <title>gw2_wvw_map-vector--camp_transparent</title>
    <desc>Created with Sketch.</desc>
    <defs></defs>
    <g id="Page-1" stroke="none" stroke-width="1" fill="none" fill-rule="evenodd">
        <g id="Group-7" transform="translate(2.000000, 2.000000)" fill="#000000">
            <path d="M22,44 C9.8497355,44 0,34.1502645 0,22 C0,9.8497355 9.8497355,0 22,0 C34.1502645,0 44,9.8497355 44,22 C44,34.1502645 34.1502645,44 22,44 Z M22,42 C33.045695,42 42,33.045695 42,22 C42,10.954305 33.045695,2 22,2 C10.954305,2 2,10.954305 2,22 C2,33.045695 10.954305,42 22,42 Z" id="Combined-Shape"></path>
            <path d="M22.19437,22.8 L21.960297,22.8 C20.9995882,27.7372093 19.2772838,31.0705427 16.7933837,32.8 L7.6,32.8 C10.7488665,29.6280719 12.3232998,26.6579108 12.3232998,23.8895168 C12.3174443,23.9517798 13.3189112,20.5992242 11.354667,19.9064078 L11.354667,19.7933336 C11.6836725,19.8326999 12.0172565,19.8528454 12.354667,19.8528454 C16.8233056,19.8528454 20.6207794,16.3192895 22,11.4005064 L22,10.8 C22.0246961,10.9050513 22.050479,11.0095354 22.0773328,11.1134327 C22.1041876,11.0095373 22.1299707,10.9050523 22.154667,10.8 L22.154667,11.4005064 C23.5338876,16.3192895 27.3313614,19.8528454 31.8,19.8528454 C32.1374105,19.8528454 32.4709945,19.8326999 32.8,19.7933336 L32.8,19.9064078 C30.8357558,20.5992242 31.8372227,23.9517798 31.8313672,23.8895168 C31.8313672,26.6579108 33.4058005,29.6280719 36.554667,32.8 L27.3612833,32.8 C24.8773832,31.0705427 23.1550787,27.7372093 22.19437,22.8 Z M14,24 L14,27.6 L16.8,27.6 L16.8,24 L14,24 Z M26.4,24 L26.4,27.6 L29.2,27.6 L29.2,24 L26.4,24 Z" id="Combined-Shape"></path>
        </g>
    </g>
</svg>