<?xml version="1.0" encoding="UTF-8"?>
<svg width="48px" height="48px" viewBox="0 0 48 48" version="1.1" xmlns="http://www.w3.org/2000/svg" xmlns:xlink="http://www.w3.org/1999/xlink">
    <!-- Generator: Sketch 50.2 (55047) - http://www.bohemiancoding.com/sketch -->
    <title>gw2_wvw_map-vector--castle_transparent</title>
    <desc>Created with Sketch.</desc>
    <defs></defs>
    <g id="Page-1" stroke="none" stroke-width="1" fill="none" fill-rule="evenodd">
        <g id="Group-3" transform="translate(2.000000, 2.000000)" fill="#000000">
            <path d="M22,44 C9.8497355,44 0,34.1502645 0,22 C0,9.8497355 9.8497355,0 22,0 C34.1502645,0 44,9.8497355 44,22 C44,34.1502645 34.1502645,44 22,44 Z M22,42 C33.045695,42 42,33.045695 42,22 C42,10.954305 33.045695,2 22,2 C10.954305,2 2,10.954305 2,22 C2,33.045695 10.954305,42 22,42 Z" id="Combined-Shape"></path>
            <path d="M22.1529775,24.799187 L18.7025391,27.6173828 L18.7025391,33.2955078 L13.1365234,33.2955078 L13.1365234,31.9242188 L14.4703125,31.0855469 L14.4703125,21.2171875 L22.1460937,21.2171875 L29.8361328,21.2170898 L29.8361328,31.0868218 L31.1699219,31.9256104 L31.1699219,33.2970901 L25.6039063,33.2970901 L25.6039063,27.6181754 L22.1529775,24.799187 Z M22,10.5381488 L22,10.4 L22.0657227,10.4690744 L22.1314453,10.4 L22.1314453,10.5381488 L28.2310547,16.9488281 L31.3314453,14.6361328 L29.6390625,19.0884766 L14.4923828,19.0884766 L12.8,14.6361328 L15.9003906,16.9488281 L22,10.5381488 Z" id="Combined-Shape"></path>
        </g>
    </g>
</svg>