<?xml version="1.0" encoding="UTF-8"?>
<svg width="48px" height="48px" viewBox="0 0 48 48" version="1.1" xmlns="http://www.w3.org/2000/svg" xmlns:xlink="http://www.w3.org/1999/xlink">
    <!-- Generator: Sketch 50.2 (55047) - http://www.bohemiancoding.com/sketch -->
    <title>gw2_wvw_map-vector--bloodlust_transparent</title>
    <desc>Created with Sketch.</desc>
    <defs>
        <filter x="-15.0%" y="-12.5%" width="133.0%" height="125.0%" filterUnits="objectBoundingBox" id="filter-1">
            <feOffset dx="0" dy="0" in="SourceAlpha" result="shadowOffsetOuter1"></feOffset>
            <feGaussianBlur stdDeviation="1.5" in="shadowOffsetOuter1" result="shadowBlurOuter1"></feGaussianBlur>
            <feColorMatrix values="0 0 0 0 0   0 0 0 0 0   0 0 0 0 0  0 0 0 0.5 0" type="matrix" in="shadowBlurOuter1" result="shadowMatrixOuter1"></feColorMatrix>
            <feMerge>
                <feMergeNode in="shadowMatrixOuter1"></feMergeNode>
                <feMergeNode in="SourceGraphic"></feMergeNode>
            </feMerge>
        </filter>
    </defs>
    <g id="Page-1" stroke="none" stroke-width="1" fill="none" fill-rule="evenodd">
        <g id="Group-5" transform="translate(9.000000, 6.000000)">
            <g id="sun" filter="url(#filter-1)">
                <path d="M0,36 L0,8.47201455 L15.1912317,0 L30.0723702,8.47201455 L30.0723702,36 L0,36 Z M1.41361135,34.5811852 L28.705156,34.5811852 L28.705156,9.34803568 L15.0473671,1.64292931 L1.41361135,9.34803568 L1.41361135,34.5811852 Z" id="house" fill="#000000"></path>
                <ellipse id="Oval" fill="#FFFFFF" cx="15.0386026" cy="19.7999562" rx="6.83607096" ry="7.09407384"></ellipse>
                <polygon id="Triangle" fill="#FFFFFF" points="15.0379747 6.35294118 17.0886076 11.2941176 12.9873418 11.2941176"></polygon>
                <polygon id="Triangle" fill="#FFFFFF" transform="translate(15.037975, 30.705882) scale(1, -1) translate(-15.037975, -30.705882) " points="15.0379747 28.2352941 17.0886076 33.1764706 12.9873418 33.1764706"></polygon>
                <polygon id="Triangle" fill="#FFFFFF" transform="translate(24.213459, 14.294118) rotate(-300.000000) translate(-24.213459, -14.294118) " points="24.213459 11.8235294 26.2640919 16.7647059 22.1628261 16.7647059"></polygon>
                <polygon id="Triangle" fill="#FFFFFF" transform="translate(5.862490, 25.235294) rotate(-300.000000) translate(-5.862490, -25.235294) " points="5.86249034 27.7058824 7.91312325 22.7647059 3.81185743 22.7647059"></polygon>
                <polygon id="Triangle" fill="#FFFFFF" transform="translate(24.213459, 25.235294) rotate(-240.000000) translate(-24.213459, -25.235294) " points="24.213459 22.7647059 26.2640919 27.7058824 22.1628261 27.7058824"></polygon>
                <polygon id="Triangle" fill="#FFFFFF" transform="translate(5.862490, 14.294118) rotate(-240.000000) translate(-5.862490, -14.294118) " points="5.86249034 16.7647059 7.91312325 11.8235294 3.81185743 11.8235294"></polygon>
            </g>
        </g>
    </g>
</svg>