<?xml version="1.0" encoding="UTF-8"?>
<svg width="48px" height="48px" viewBox="0 0 48 48" version="1.1" xmlns="http://www.w3.org/2000/svg" xmlns:xlink="http://www.w3.org/1999/xlink">
    <!-- Generator: Sketch 50.2 (55047) - http://www.bohemiancoding.com/sketch -->
    <title>gw2_wvw_map-vector--tower_transparent</title>
    <desc>Created with Sketch.</desc>
    <defs></defs>
    <g id="Page-1" stroke="none" stroke-width="1" fill="none" fill-rule="evenodd">
        <g id="Group-8" transform="translate(2.000000, 2.000000)" fill="#000000">
            <path d="M22,44 C9.8497355,44 0,34.1502645 0,22 C0,9.8497355 9.8497355,0 22,0 C34.1502645,0 44,9.8497355 44,22 C44,34.1502645 34.1502645,44 22,44 Z M22,42 C33.045695,42 42,33.045695 42,22 C42,10.954305 33.045695,2 22,2 C10.954305,2 2,10.954305 2,22 C2,33.045695 10.954305,42 22,42 Z" id="Combined-Shape"></path>
            <path d="M22.3191418,7.35270976 L30.8,12.7878716 L30.8,20.8170732 L27.7321005,23.9938539 L27.7321005,33.8523885 L29.2502245,35.1779197 L29.2502245,36.6976477 L24.8368459,36.6976477 L24.8368459,30.8334619 L22.2,27.7987917 L19.5631541,30.8334619 L19.5631541,36.6976477 L15.1497755,36.6976477 L15.1497755,35.1779197 L16.6678995,33.8523885 L16.6678995,23.9938539 L13.6,20.8170732 L13.6,12.7878716 L22.0808582,7.35270976 L22.0808582,7.2 L22.2,7.27635488 L22.3191418,7.2 L22.3191418,7.35270976 Z M16.4,13.4976477 L16.4,19.8976477 L18.4,19.8976477 L18.4,13.4976477 L16.4,13.4976477 Z M21.2,13.4976477 L21.2,19.8976477 L23.2,19.8976477 L23.2,13.4976477 L21.2,13.4976477 Z M26,13.4976477 L26,19.8976477 L28,19.8976477 L28,13.4976477 L26,13.4976477 Z" id="Combined-Shape"></path>
        </g>
    </g>
</svg>