<svg width="48px" height="48px" viewBox="0 0 48 48" version="1.1" xmlns="http://www.w3.org/2000/svg"
     class="bloodlust bloodlust-green">
  <g stroke="none" fill="none">
    <g transform="translate(9.000000, 6.000000)">
      <polygon fill="url(#radialGradient-green)"
               points="0 36 30.0759494 36 30.0759494 8.47201455 15.1930398 0 0 8.47201455"/>
      <path
        d="M0,36 L0,8.47201455 L15.1912317,0 L30.0723702,8.47201455 L30.0723702,36 L0,36 Z M1.41361135,34.5811852 L28.705156,34.5811852 L28.705156,9.34803568 L15.0473671,1.64292931 L1.41361135,9.34803568 L1.41361135,34.5811852 Z"
        fill="#000000"/>
      <path
        d="M15.0386026,26.89403 C11.2631449,26.89403 8.20253165,23.717905 8.20253165,19.7999562 C8.20253165,15.8820074 11.2631449,12.7058824 15.0386026,12.7058824 C18.8140604,12.7058824 21.8746736,15.8820074 21.8746736,19.7999562 C21.8746736,23.717905 18.8140604,26.89403 15.0386026,26.89403 Z M15.0379747,6.35294118 L17.0886076,11.2941176 L12.9873418,11.2941176 L15.0379747,6.35294118 Z M15.0379747,33.1764706 L12.9873418,28.2352941 L17.0886076,28.2352941 L15.0379747,33.1764706 Z M26.3530512,13.0588235 L23.0991833,17.305312 L21.0485504,13.7535116 L26.3530512,13.0588235 Z M3.72289817,26.4705882 L6.97676606,22.2240998 L9.02739897,25.7759002 L3.72289817,26.4705882 Z M26.3530512,26.4705882 L21.0485504,25.7759002 L23.0991833,22.2240998 L26.3530512,26.4705882 Z M3.72289817,13.0588235 L9.02739897,13.7535116 L6.97676606,17.305312 L3.72289817,13.0588235 Z"
        fill="#FFFFFF"/>
    </g>
  </g>
</svg>
